<svg xmlns="http://www.w3.org/2000/svg" width="20.114" height="16.343" viewBox="0 0 20.114 16.343"><defs><style>.a{fill:#03a9f4;}</style></defs><path class="a" d="M20.114,1.935a8.6,8.6,0,0,1-2.376.651A4.1,4.1,0,0,0,19.552.307a8.241,8.241,0,0,1-2.615,1A4.123,4.123,0,0,0,9.8,4.125a4.246,4.246,0,0,0,.1.94A11.672,11.672,0,0,1,1.4.752,4.125,4.125,0,0,0,2.668,6.263,4.072,4.072,0,0,1,.8,5.755V5.8a4.143,4.143,0,0,0,3.3,4.052,4.116,4.116,0,0,1-1.081.136,3.646,3.646,0,0,1-.781-.07A4.163,4.163,0,0,0,6.1,12.79,8.286,8.286,0,0,1,.987,14.549,7.723,7.723,0,0,1,0,14.492a11.609,11.609,0,0,0,6.326,1.851A11.656,11.656,0,0,0,18.063,4.609c0-.182-.006-.358-.015-.533A8.226,8.226,0,0,0,20.114,1.935Z" transform="translate(0 0)"/></svg>